<svg width="17" height="17" viewBox="0 0 17 17" fill="none" xmlns="http://www.w3.org/2000/svg">
<path d="M8.33802 10.815L7.10469 12.0483C6.84469 12.3083 6.43135 12.3083 6.16469 12.055C6.09135 11.9816 6.01802 11.915 5.94469 11.8416C5.25802 11.1483 4.63802 10.4216 4.08469 9.66164C3.53802 8.90164 3.09802 8.14164 2.77802 7.38831C2.46469 6.62831 2.30469 5.90164 2.30469 5.20831C2.30469 4.75497 2.38469 4.32164 2.54469 3.92164C2.70469 3.51497 2.95802 3.14164 3.31135 2.80831C3.73802 2.38831 4.20469 2.18164 4.69802 2.18164C4.88469 2.18164 5.07135 2.22164 5.23802 2.30164C5.41135 2.38164 5.56469 2.50164 5.68469 2.67497L7.23135 4.85497C7.35135 5.02164 7.43802 5.17497 7.49802 5.32164C7.55802 5.46164 7.59135 5.60164 7.59135 5.72831C7.59135 5.88831 7.54469 6.04831 7.45135 6.20164C7.36469 6.35497 7.23802 6.51497 7.07802 6.67497L6.57135 7.20164C6.49802 7.27497 6.46469 7.36164 6.46469 7.46831C6.46469 7.52164 6.47135 7.56831 6.48469 7.62164C6.50469 7.67497 6.52469 7.71497 6.53802 7.75497C6.65802 7.97497 6.86469 8.26164 7.15802 8.60831C7.45802 8.95497 7.77802 9.30831 8.12469 9.66164C8.19135 9.72831 8.26469 9.79497 8.33135 9.86164C8.59802 10.1216 8.60469 10.5483 8.33802 10.815Z" fill="#64748B"/>
<path d="M15.6178 13.068C15.6178 13.2547 15.5844 13.448 15.5178 13.6347C15.4978 13.688 15.4778 13.7413 15.4511 13.7947C15.3378 14.0347 15.1911 14.2613 14.9978 14.4747C14.6711 14.8347 14.3111 15.0947 13.9044 15.2613C13.8978 15.2613 13.8911 15.268 13.8844 15.268C13.4911 15.428 13.0644 15.5147 12.6044 15.5147C11.9244 15.5147 11.1978 15.3547 10.4311 15.028C9.66443 14.7013 8.89776 14.2613 8.13776 13.708C7.87776 13.5147 7.61776 13.3213 7.37109 13.1147L9.55109 10.9347C9.73776 11.0747 9.90443 11.1813 10.0444 11.2547C10.0778 11.268 10.1178 11.288 10.1644 11.308C10.2178 11.328 10.2711 11.3347 10.3311 11.3347C10.4444 11.3347 10.5311 11.2947 10.6044 11.2213L11.1111 10.7213C11.2778 10.5547 11.4378 10.428 11.5911 10.348C11.7444 10.2547 11.8978 10.208 12.0644 10.208C12.1911 10.208 12.3244 10.2347 12.4711 10.2947C12.6178 10.3547 12.7711 10.4413 12.9378 10.5547L15.1444 12.1213C15.3178 12.2413 15.4378 12.3813 15.5111 12.548C15.5778 12.7147 15.6178 12.8813 15.6178 13.068Z" fill="#64748B"/>
</svg>
