<svg width="15" height="15" viewBox="0 0 15 15" fill="none" xmlns="http://www.w3.org/2000/svg">
<path fill-rule="evenodd" clip-rule="evenodd" d="M6.61945 2.4541C4.43063 2.4541 2.65625 4.22849 2.65625 6.4173C2.65625 8.60612 4.43063 10.3805 6.61945 10.3805C7.50966 10.3805 8.33132 10.087 8.99294 9.59147L11.3147 11.9132C11.5358 12.1343 11.8943 12.1343 12.1154 11.9132C12.3365 11.6921 12.3365 11.3336 12.1154 11.1125L9.79362 8.79079C10.2891 8.12917 10.5826 7.30751 10.5826 6.4173C10.5826 4.22849 8.80826 2.4541 6.61945 2.4541ZM3.78859 6.4173C3.78859 4.85386 5.05601 3.58644 6.61945 3.58644C8.18289 3.58644 9.45031 4.85386 9.45031 6.4173C9.45031 7.98074 8.18289 9.24816 6.61945 9.24816C5.05601 9.24816 3.78859 7.98074 3.78859 6.4173Z" fill="#64748B"/>
</svg>
