<svg width="17" height="17" viewBox="0 0 17 17" fill="none" xmlns="http://www.w3.org/2000/svg">
<path d="M4.97005 9.51465C3.13005 9.51465 1.63672 11.0013 1.63672 12.848C1.63672 14.6946 3.13005 16.1813 4.97005 16.1813C6.81005 16.1813 8.30339 14.688 8.30339 12.848C8.30339 11.008 6.81672 9.51465 4.97005 9.51465ZM3.61005 11.488H4.97005C5.22339 11.488 5.42339 11.6946 5.42339 11.9413C5.42339 12.188 5.22339 12.3946 4.97005 12.3946H3.61005C3.35672 12.3946 3.15672 12.188 3.15672 11.9413C3.15672 11.6946 3.35672 11.488 3.61005 11.488ZM6.33005 14.208H3.61005C3.35672 14.208 3.15672 14.0013 3.15672 13.7546C3.15672 13.508 3.36339 13.3013 3.61005 13.3013H6.33672C6.59005 13.3013 6.79005 13.508 6.79005 13.7546C6.79005 14.0013 6.58339 14.208 6.33005 14.208Z" fill="#64748B"/>
<path d="M12.3047 2.84814H5.63802C3.63802 2.84814 2.30469 3.84814 2.30469 6.18148V8.27481C2.30469 8.76148 2.80469 9.06814 3.25135 8.87481C3.98469 8.55481 4.81802 8.43481 5.69135 8.57481C7.43802 8.86148 8.86469 10.2415 9.21802 11.9748C9.31802 12.4815 9.33135 12.9748 9.26469 13.4481C9.21135 13.8415 9.53135 14.1881 9.92469 14.1881H12.3047C14.3047 14.1881 15.638 13.1881 15.638 10.8548V6.18148C15.638 3.84814 14.3047 2.84814 12.3047 2.84814ZM12.618 6.57481L10.5314 8.24148C10.0914 8.59481 9.53135 8.76814 8.97135 8.76814C8.41135 8.76814 7.84469 8.59481 7.41135 8.24148L5.32469 6.57481C5.11135 6.40148 5.07802 6.08148 5.24469 5.86814C5.41802 5.65481 5.73135 5.61481 5.94469 5.78814L8.03135 7.45481C8.53802 7.86148 9.39802 7.86148 9.90469 7.45481L11.9914 5.78814C12.2047 5.61481 12.5247 5.64814 12.6914 5.86814C12.8647 6.08148 12.8314 6.40148 12.618 6.57481Z" fill="#64748B"/>
</svg>
