<svg width="92" height="65" viewBox="0 0 92 65" fill="none" xmlns="http://www.w3.org/2000/svg">
<mask id="path-1-inside-1_1931_3147" fill="white">
<path d="M0.970703 0.00488281H91.9707V64.2786H0.970703V0.00488281Z"/>
</mask>
<path d="M0.970703 0.00488281H91.9707V64.2786H0.970703V0.00488281Z" fill="white"/>
<path d="M91.9707 63.4294H0.970703V65.1279H91.9707V63.4294Z" fill="#E7EAEE" mask="url(#path-1-inside-1_1931_3147)"/>
<g clip-path="url(#clip0_1931_3147)">
<path d="M33.7656 32.1416C33.7656 32.672 33.5549 33.1807 33.1798 33.5558C32.8048 33.9309 32.2961 34.1416 31.7656 34.1416C31.2352 34.1416 30.7265 33.9309 30.3514 33.5558C29.9763 33.1807 29.7656 32.672 29.7656 32.1416C29.7656 31.6112 29.9763 31.1025 30.3514 30.7274C30.7265 30.3523 31.2352 30.1416 31.7656 30.1416C32.2961 30.1416 32.8048 30.3523 33.1798 30.7274C33.5549 31.1025 33.7656 31.6112 33.7656 32.1416ZM39.7656 32.1416C39.7656 32.672 39.5549 33.1807 39.1798 33.5558C38.8048 33.9309 38.2961 34.1416 37.7656 34.1416C37.2352 34.1416 36.7265 33.9309 36.3514 33.5558C35.9763 33.1807 35.7656 32.672 35.7656 32.1416C35.7656 31.6112 35.9763 31.1025 36.3514 30.7274C36.7265 30.3523 37.2352 30.1416 37.7656 30.1416C38.2961 30.1416 38.8048 30.3523 39.1798 30.7274C39.5549 31.1025 39.7656 31.6112 39.7656 32.1416ZM43.7656 34.1416C44.2961 34.1416 44.8048 33.9309 45.1798 33.5558C45.5549 33.1807 45.7656 32.672 45.7656 32.1416C45.7656 31.6112 45.5549 31.1025 45.1798 30.7274C44.8048 30.3523 44.2961 30.1416 43.7656 30.1416C43.2352 30.1416 42.7265 30.3523 42.3514 30.7274C41.9763 31.1025 41.7656 31.6112 41.7656 32.1416C41.7656 32.672 41.9763 33.1807 42.3514 33.5558C42.7265 33.9309 43.2352 34.1416 43.7656 34.1416Z" fill="#5B6871"/>
</g>
<defs>
<clipPath id="clip0_1931_3147">
<rect x="7.76562" y="20.1416" width="60" height="24" rx="6" fill="white"/>
</clipPath>
</defs>
</svg>
