<svg width="25" height="25" viewBox="0 0 25 25" fill="none" xmlns="http://www.w3.org/2000/svg">
<path d="M6.2207 11.6025H21.2207C21.4196 11.6025 21.6104 11.6816 21.751 11.8222C21.8917 11.9629 21.9707 12.1536 21.9707 12.3525C21.9707 12.5515 21.8917 12.7422 21.751 12.8829C21.6104 13.0235 21.4196 13.1025 21.2207 13.1025H6.2207C6.02179 13.1025 5.83103 13.0235 5.69037 12.8829C5.54972 12.7422 5.4707 12.5515 5.4707 12.3525C5.4707 12.1536 5.54972 11.9629 5.69037 11.8222C5.83103 11.6816 6.02179 11.6025 6.2207 11.6025Z" fill="black"/>
<path d="M6.53059 12.3525L12.7511 18.5715C12.8919 18.7123 12.971 18.9033 12.971 19.1025C12.971 19.3017 12.8919 19.4927 12.7511 19.6335C12.6103 19.7743 12.4193 19.8535 12.2201 19.8535C12.0209 19.8535 11.8299 19.7743 11.6891 19.6335L4.93909 12.8835C4.86925 12.8138 4.81383 12.7311 4.77602 12.64C4.73821 12.5488 4.71875 12.4512 4.71875 12.3525C4.71875 12.2539 4.73821 12.1562 4.77602 12.0651C4.81383 11.9739 4.86925 11.8912 4.93909 11.8215L11.6891 5.07151C11.8299 4.93068 12.0209 4.85156 12.2201 4.85156C12.4193 4.85156 12.6103 4.93068 12.7511 5.07151C12.8919 5.21234 12.971 5.40335 12.971 5.60251C12.971 5.80167 12.8919 5.99268 12.7511 6.13351L6.53059 12.3525Z" fill="black"/>
</svg>
